<!DOCTYPE svg PUBLIC "-//W3C//DTD SVG 1.1//EN" "http://www.w3.org/Graphics/SVG/1.1/DTD/svg11.dtd">
<!-- Uploaded to: SVG Repo, www.svgrepo.com, Transformed by: SVG Repo Mixer Tools -->
<svg width="800px" height="800px" viewBox="-4.8 -4.8 57.60 57.60" fill="none" xmlns="http://www.w3.org/2000/svg" stroke="#000000">
<g id="SVGRepo_bgCarrier" stroke-width="0">
<rect x="-4.8" y="-4.8" width="57.60" height="57.60" rx="0" fill="#000000" strokewidth="0"/>
</g>
<g id="SVGRepo_tracerCarrier" stroke-linecap="round" stroke-linejoin="round"/>
<g id="SVGRepo_iconCarrier"> <rect width="48" height="48" fill="white" fill-opacity="0.01"/> <path d="M48 0H0V48H48V0Z" fill="white" fill-opacity="0.01"/> <path d="M15.5 9L7 14V24V34L15.5 39L24 44L32.5001 39L41 34V24V14L32.5001 9L24 4L15.5 9Z" stroke="#525151" stroke-width="4" stroke-linecap="round" stroke-linejoin="round"/> <path d="M41 14L24 24" stroke="#525151" stroke-width="4" stroke-linecap="round" stroke-linejoin="round"/> <path d="M7 14L24 24" stroke="#525151" stroke-width="4" stroke-linecap="round" stroke-linejoin="round"/> <path d="M24 44V24" stroke="#525151" stroke-width="4" stroke-linecap="round" stroke-linejoin="round"/> <path d="M32 19L32 39" stroke="#525151" stroke-width="4" stroke-linecap="round" stroke-linejoin="round"/> <path d="M41.0002 24L24.0002 34" stroke="#525151" stroke-width="4" stroke-linecap="round" stroke-linejoin="round"/> <path d="M24 34L7 24" stroke="#525151" stroke-width="4" stroke-linecap="round" stroke-linejoin="round"/> <path d="M16 39L16 19" stroke="#525151" stroke-width="4" stroke-linecap="round" stroke-linejoin="round"/> <path d="M32 9L16 19" stroke="#525151" stroke-width="4" stroke-linecap="round" stroke-linejoin="round"/> <path d="M32 19L16 9" stroke="#525151" stroke-width="4" stroke-linecap="round" stroke-linejoin="round"/> </g>
</svg>