<svg xmlns="http://www.w3.org/2000/svg" fill="none" viewBox="0 0 13 14" class="size-3.5"><path fill="#777575" d="M6.477 1.546 5.158.772 6.468 0l1.319.774zM6.689 1.67l1.318.775 1.31-.772L8 .9zM1.814 5.961V4.428L.5 3.656v1.533zM3.34 6.858V5.325l-1.313-.772v1.533zM4.867 6.222v1.533l-1.314-.772V5.45zM6.394 8.652V7.119L5.08 6.347V7.88zM3.34 7.108V8.64l-1.313-.772V6.336zM1.814 7.744V6.211L.5 5.439v1.533zM4.867 8.005v1.533l-1.314-.772V7.233zM6.394 10.435V8.902L5.08 8.129v1.534zM3.34 8.89v1.533l-1.313-.772V8.118zM1.814 9.526V7.993L.5 7.221v1.533zM4.867 9.787v1.533l-1.314-.772V9.015zM6.394 12.217v-1.533L5.08 9.912v1.533zM3.34 10.673v1.533l-1.313-.772V9.901zM1.814 11.31V9.775L.5 9.004v1.533zM4.867 11.57v1.533l-1.314-.772v-1.533zM6.394 14v-1.533l-1.314-.772v1.533zM7.92 7.88V6.347l-1.314.772v1.533zM7.92 9.663V8.129l-1.314.773v1.533zM7.92 11.445V9.912l-1.314.772v1.534zM7.92 13.228v-1.533l-1.314.772V14zM8.22 2.57l1.317.774 1.31-.772-1.317-.774zM5.166 2.567l1.318.774 1.31-.771-1.317-.775zM4.954 2.442l-1.318-.774 1.31-.772 1.318.775zM6.696 3.466l1.319.774 1.31-.772-1.318-.774zM3.65 3.467l1.32.774 1.303-.775-1.319-.774zM3.439 3.342l-1.326-.778 1.31-.771 1.32.775zM5.181 4.366l1.315.772 1.307-.773-1.318-.774zM8.026 6.035l-1.318-.772 1.307-.773 1.325.773zM2.129 4.364l1.318.774 1.31-.772-1.318-.774zM1.92 4.24.604 3.469l1.298-.778 1.325.778zM3.659 5.263l1.314.772 1.31-.772-1.314-.772zM6.5 6.932 5.186 6.16l1.31-.772 1.318.772zM9.447 5.45v1.533l-1.314.772V6.222zM9.447 7.233v1.533l-1.314.772V8.005zM9.447 9.015v1.533l-1.314.772V9.788zM8.133 11.57l1.314-.772v1.533l-1.314.772zM10.974 6.086V4.553l-1.315.772v1.533zM12.5 3.656v1.533l-1.314.772V4.428zM10.974 7.869V6.336l-1.315.772V8.64zM12.5 5.439v1.533l-1.314.772V6.211zM10.974 9.651V8.118l-1.315.772v1.534zM12.5 7.221v1.533l-1.314.773V7.994zM10.974 11.434V9.901l-1.315.772v1.533zM12.5 9.004v1.533l-1.314.772V9.776zM11.08 4.241l-1.33-.773 1.31-.771 1.333.772zM9.553 5.138l-1.325-.774 1.31-.771 1.329.773z"></path></svg>