<!DOCTYPE svg PUBLIC "-//W3C//DTD SVG 1.1//EN" "http://www.w3.org/Graphics/SVG/1.1/DTD/svg11.dtd">
<!-- Uploaded to: SVG Repo, www.svgrepo.com, Transformed by: SVG Repo Mixer Tools -->
<svg height="64px" width="64px" version="1.1" id="Capa_1" xmlns="http://www.w3.org/2000/svg" xmlns:xlink="http://www.w3.org/1999/xlink" viewBox="0 0 45.507 45.507" xml:space="preserve" fill="#000000">
<g id="SVGRepo_bgCarrier" stroke-width="0"/>
<g id="SVGRepo_tracerCarrier" stroke-linecap="round" stroke-linejoin="round"/>
<g id="SVGRepo_iconCarrier"> <g> <path style="fill:#010002;" d="M22.732,35.917c11.736,0,21.25-3.527,21.25-7.877c0,0,0-1.29,0-2.88s-1.338-0.391-4.294,1.107 c-3.933,1.992-10.097,3.344-16.956,3.344c-7.017,0-13.238-1.261-17.108-3.205c-2.961-1.487-4.102-2.831-4.116-1.243L1.482,28.04 C1.482,32.39,10.996,35.917,22.732,35.917z"/> <path style="fill:#010002;" d="M22.732,45.507c11.736,0,21.25-3.527,21.25-7.877c0,0,0-1.29,0-2.88s-1.338-0.391-4.294,1.107 c-3.933,1.992-10.097,3.344-16.956,3.344c-7.017,0-13.238-1.261-17.108-3.205c-2.961-1.487-4.102-2.831-4.116-1.242L1.482,37.63 C1.482,41.98,10.996,45.507,22.732,45.507z"/> <path style="fill:#010002;" d="M43.982,12.135v-0.158c-0.003,0.009-0.01,0.018-0.013,0.027c-0.138-1.141-0.479-1.712-0.802-1.988 c0.518-0.681,0.815-1.396,0.815-2.139c0-4.35-9.514-7.877-21.25-7.877C10.996,0,1.482,3.527,1.482,7.877 c0,0.802,0.328,1.576,0.93,2.305c-0.461,0.6-0.692,1.341-0.813,2.005c-0.018-0.068-0.052-0.134-0.064-0.203l-0.006,0.648 c-0.084,0.709-0.047,1.243-0.047,1.243c-0.002,0.228,0.012,0.445,0.029,0.661l-0.029,3.2c0,4.351,9.514,7.878,21.25,7.878 s21.25-3.527,21.25-7.878v-3.361C44.056,13.451,44.043,12.727,43.982,12.135z"/> </g> </g>
</svg>